<?xml version="1.0" encoding="UTF-8"?>
<svg id="Layer_1" data-name="Layer 1" xmlns="http://www.w3.org/2000/svg" viewBox="0 0 406.17 406.17">
  <defs>
    <style>
      .cls-1 {
        fill: #4a4f6a;
        stroke: none;
        stroke-width: 0;
      }
    </style>
  </defs>
  <path class="cls-1" d="M305.08,159.8c1.94.83,4.56,4.87,6.16,4.99.71.05,2.78,1.22,2.93,1.63.11.29.57.4.71.89.37,1.34.51,3.55.86,5.04.08.36.29,2.65.56,3.7.15.61,1.26,3,1.78,3.23.4.17,1.63.41,2.06.37.7-.07,2.67-.83,3.58-1.08,2.62-.72,5.43-1.78,8.26-1.3,1.18.2,2.3.81,3.69.76,1.83-.06,3.53-1.24,5.69-.63.71.2,2.22,3.17,2.63,3.69,1,1.24,2.28,2.68,3.17,3.9.27.37-2.2,4.45-2.77,3.61-.63-.93-3.91-4.7-5.24-3.92-.18.1-.17.38-.4.53-.28.18-3.68,5.64-4.36,6.17-.09.07-1.29,1.49-1.42,1.68-.55.78-.81,1.83-1.36,2.55-1.82,2.36-5.04,5.87-6.13,8.6-.26.65-1.28,2.15-1.62,2.54-.4.45,1.65,3.11.82,3.34-.56.16-2.15.5-2.7.44-.49-.06-9.21-4.23-8.14-6.33.43-.85,4.09.54,4.83.4,1-.19,2.63-1.73,3.01-2.18,1.74-2.02,2.61-3.98,4.53-6.04.93-1,3.01-4.42,3.37-4.96.63-.94,1.22-2.54,1.77-3.45.53-.86,1.86-1.22,2.12-2.41-.89-.15-3.32,1.19-3.72,1.41-.29.16-5.49,1.49-6.62,1.63-.63.08-3.82-.07-4.36-.16-.71-.12-2.08-.74-2.52-.96-.15-.08-1.65-2.61-1.7-2.87-.12-.61-.55-2.14-.86-2.59-.44-.65-1.08-2.42-1.36-3.24-.5-1.47-.94-3.27-1.18-4.78-1.86-.5-1.46.67-1.96,1.68-.33.65-2.24,3.95-2.46,4.71-.47,1.6-1.79,4.5-2.53,6.1-.48,1.02-3.45,9.01-3.65,9.22-.79.86-7.41-2.9-7.65-3.27-.33-.49-1.27-2.89-1.33-3.1-.13-.41.78-2.83.97-4.14.31-2.15,3.65-7.37,4.51-8.75s2.21-2.88,3.09-4.38c.22-.37,1.8-1.83,2.25-2.47.53-.75,1.54-2.95,1.78-3.6.32-1.46-.93-1.48-1.68-2.02-.33-.24-1.81-.62-1.47-1.88.26-.98,1.38-2.35,2.07-2.59.68-.09,1.39.07,2.02.33Z"/>
  <path class="cls-1" d="M104.56,184.93c-.22-1.38.21-1.96-.14-3.84-.73-3.87-1.79-6.94-2.81-10.73-.24-.89-.7-2.25-.28-3.09.18-.36.87-.68,1.16-1.07.5-.65,1.69-2.52,1.38-3.31-.09-.22-1.55-.83-1.78-.86-.66-.08-1.21-.42-3.08-.15-2.74.4-5.86,1.63-6.27,2.19-.49.68-.34,3.66.07,4.49.95,1.93,1.83.8,3.21,1.08,1.08.22,1.94,3.16,2.06,3.4,1.05,2.13,2.43,7.57,2.51,8.13.11.82.34,1.74.28,2.74-.89.4-1.49.09-2.03-.03-1.12-.24-1.92-.53-3.04-1.16l-3.51-1.66c-1.05-.49-2.28-.33-3.16.42-1.21,1.04-2.51,2.45-2.51,2.45-.11,1.23-1,2.79-1.02,4-.04,1.73,1.44,5.27,1.65,6.99.05.42.4,2.67.28,3.41-.44.04-.87-.04-1.27-.21-.09-.04-1.43-1.18-1.53-1.28-1.15-1.2-2.24-2.62-3.4-3.87-2.32-2.48-6.19-5.35-8-8.1-.49-.75-.53-2.02-1.08-2.6-.64-.67-2.97-1.42-3.74-.93-5.41,3.46-6.37,5.5-7.93,6.99-.14.13-1.24,2-1.3,2.09-.31.5-.46,2.17.1,2.58.25.18,1.51.54,1.84.53,1.03-.04,1.6-1.15,2.36-1.32.21-.05,2.43-.21,2.62-.2,1.62.11,5.5,3.68,5.81,4.08.44.58,6.35,7.24,8.01,8.27,1.16.72,2.47,1.06,3.59,1.85,0,0-.66,1.19-1.31,1.88-.71.74-.8,2.41,1.61,1.89,2.8-.61,3.26-2.12,4.5-3.78.44-.59.81-1.2,1.11-1.95.66-1.64,1.04-4.09,1.12-5.86.11-2.49.09-5.2-.35-7.63.64.09,1.48-.49,2.04-.4.2.03,2.55.78,3.34.99,2.08.55,4.62,2.63,6.96,2.2.71-.13,4.12-1.8,5.17-2.4.4-.23,1.25-2.08,1.22-2.43-.05-.54.13-1.56-.76-2.2-.85-.31-2.99,1.48-3.28,1.3-.01-.77-.29-2.18-.41-2.89Z"/>
  <path class="cls-1" d="M180.91,144.29c-.09-.58-.65-3.41-.92-4.1-.09-.23-2.42-2.96-2.77-3.28-.62-.58-2.63-2.34-3.25-2.73-.54-.33-6.04-2.59-6.6-2.67-.55-.08-4.02.02-4.63.1-.45.06-3.71.97-4.73,1.29-.8.25-5.42,2.02-6.22,2.33-.56.22-1.33,1.12-1.98,1.4-.74.33-1.92.34-2.5.75-.51.36-1.57,1.68-2.05,2.38-1.13,1.66.56,2.68.74,2.88.24.27.84.72,1.48,1.05.95-.14.85-.95,1.18-1.34.71-.82,1.35-.77,1.84.22.97,1.94,2.49,8.21,2.6,8.54.27.81.71,1.94,1.57,3.89.13.29,2.18,4.63,2.28,5.68.06.65.76,2.29.91,3.28.11.78-.44,1.28-1.15,2.29-.21.7.61,3.2.95,3.67.05.07,1.23.29,1.3.33.94.47,2.44-.21,2.77-.41.3-.17,1.48-.84,1.88-1.23.46-.45,1.26-.67,1.2-1.75l1.19-2.64c1.33-.25,1.78-.44,3.12-.98.56-.22,1.57-.66,2.06-.9,2.43-1.19,4.61-3.12,4.97-3.42,1.05-.87,4.8-6.93,4.9-7.37.04-.19.31-2.92.3-3.07-.04-.5-.31-3.29-.44-4.17ZM172.39,156.33c-.49.64-2.98,1.94-3.73,2.2-.22.04-1.64-.61-1.83-.75-.68-.5-4.05-7.81-4.45-10.04-.4-2.2-.83-3.41-2.25-5.32-.8-1.07-1.94-1.8-2.63-2.95.98-1.01,4.48-1.38,6.8-1.57,1.54-.12,3.3-.29,3.74-.15.35.11,1.51.03,1.61.34.28.98,1.7,7.98,1.79,8.73.06.53.65,3.01.79,3.35.35.87.57,2.68.57,3.55,0,.91-.11,1.1-.41,2.61Z"/>
  <path class="cls-1" d="M242.5,135.86c-.88-.32-3.53-1.34-4.26-1.33-.99,0-4.73.54-5.38.66-.31.06-2.49,2.1-2.58,2.34-.29.83,1.35,1.86,1.61,2.68.24.76.14,3.26.64,3.61,1.27.87,2.37-.46,3.54-.85.79-.26,3.67-1.04,4.37-.91,4.25.75,3.29,1.92,3.44,2.67.11.54.05,2.44-.08,3.1-.37,1.96-1.7,7.61-2,8.63-.34,1.12.04,2.63-1.58,2.76-2.39.19-4.9-.33-7.14.69-.07.03-.74.14-1.25,1-.53.91-.13,1.58-.01,1.86.39.88,2.8,2.82,3.82,2.73.45-.04,4.11.58,4.86.64s2.22.42,2.57.52c.82.23,3.98.96,4.34.99,1.61.12,2.58.14,2.85.17.63.06,2.96-.91,3.22-1.28.46-.65.93-2.2.17-2.76-1.13-.84-1.94-.07-2.34-2.34-.18-1.03-.3-3.27-.34-3.81-.08-1.12.53-3.57.66-4.82.24-2.38.21-4.77.39-7.11.02-.31.43-2.6.52-2.7.59-.57,2.69,1.03,3.55,1.15.37.05,1.44-.03,3.18.31l-.6,2.62c.77,1.38,1.17,1.87,3.45,1.65.64-.06,3.44-2.2,3.53-2.66.09-.48.85-1.22.96-2.01.26-1.73-.17-4.08-2.17-4.45-.48-.09-6.29-.6-6.88-.78-1.48-.47-3.61-.8-5.16-1.01-.37-.05-3.9-.83-6.54-1.1-.65-.07-3.05-.73-3.37-.85Z"/>
  <g>
    <path class="cls-1" d="M72.19,240.81h-6.21v3.72h6.03v2.2h-6.03v5.17h6.21v2.2h-8.54v-15.48h8.54v2.2Z"/>
    <path class="cls-1" d="M85.36,240.92l-1.9,1.12c-.35-.62-.69-1.02-1.01-1.2-.33-.21-.77-.32-1.29-.32-.65,0-1.19.18-1.61.55-.43.36-.64.82-.64,1.36,0,.76.56,1.36,1.68,1.83l1.54.63c1.26.51,2.18,1.13,2.76,1.86.58.73.87,1.63.87,2.69,0,1.42-.47,2.6-1.42,3.53-.96.94-2.14,1.4-3.56,1.4-1.34,0-2.45-.4-3.33-1.19-.86-.8-1.4-1.91-1.62-3.36l2.37-.52c.11.91.29,1.54.56,1.88.48.67,1.18,1,2.11,1,.73,0,1.33-.24,1.82-.73.48-.49.72-1.11.72-1.85,0-.3-.04-.58-.13-.83-.08-.25-.21-.48-.39-.69-.18-.21-.41-.41-.69-.59-.28-.18-.61-.36-1-.53l-1.49-.62c-2.12-.9-3.18-2.21-3.18-3.93,0-1.16.44-2.14,1.33-2.92.89-.79,2-1.18,3.32-1.18,1.78,0,3.18.87,4.18,2.61Z"/>
    <path class="cls-1" d="M94.5,240.81v13.28h-2.34v-13.28h-3.56v-2.2h9.44v2.2h-3.55Z"/>
  </g>
  <g>
    <path class="cls-1" d="M296.19,251.89h5.77v2.2h-10.4l5.37-6.51c.53-.65.97-1.21,1.33-1.68s.63-.87.82-1.19c.38-.63.57-1.19.57-1.69,0-.72-.25-1.33-.76-1.82-.51-.49-1.14-.73-1.88-.73-1.56,0-2.46.93-2.69,2.78h-2.33c.37-3.26,2.02-4.89,4.94-4.89,1.41,0,2.59.45,3.55,1.34.96.9,1.44,2.01,1.44,3.33,0,.84-.22,1.67-.67,2.48-.23.42-.56.92-1,1.5-.44.58-.99,1.26-1.66,2.05l-2.41,2.85Z"/>
    <path class="cls-1" d="M305.95,246.25c0-2.47.57-4.43,1.72-5.91,1.03-1.33,2.28-2,3.74-2s2.71.67,3.74,2c1.15,1.47,1.72,3.47,1.72,6.01s-.57,4.53-1.72,6c-1.03,1.33-2.27,2-3.73,2s-2.71-.67-3.75-2c-1.15-1.47-1.72-3.5-1.72-6.1ZM308.25,246.26c0,1.72.3,3.14.89,4.28.59,1.12,1.35,1.67,2.28,1.67s1.67-.56,2.28-1.67c.6-1.11.9-2.51.9-4.2s-.3-3.09-.9-4.21c-.6-1.11-1.36-1.66-2.28-1.66s-1.66.56-2.27,1.66c-.6,1.1-.9,2.48-.9,4.13Z"/>
    <path class="cls-1" d="M324.25,251.89h5.77v2.2h-10.4l5.37-6.51c.53-.65.97-1.21,1.33-1.68s.63-.87.82-1.19c.38-.63.57-1.19.57-1.69,0-.72-.25-1.33-.76-1.82-.51-.49-1.14-.73-1.88-.73-1.56,0-2.46.93-2.69,2.78h-2.33c.37-3.26,2.02-4.89,4.94-4.89,1.41,0,2.59.45,3.55,1.34.96.9,1.44,2.01,1.44,3.33,0,.84-.22,1.67-.67,2.48-.23.42-.56.92-1,1.5-.44.58-.99,1.26-1.66,2.05l-2.41,2.85Z"/>
    <path class="cls-1" d="M343.94,240.79h-4.77l-.76,2.57c.11-.01.22-.02.33-.03.1,0,.2,0,.29,0,1.5,0,2.74.51,3.7,1.52.97,1.01,1.45,2.3,1.45,3.88s-.55,2.97-1.64,4.03c-1.1,1.06-2.48,1.58-4.14,1.58-2.05,0-3.67-.96-4.85-2.89l1.76-1.49c.49.83.98,1.41,1.47,1.75.49.33,1.1.5,1.81.5.94,0,1.72-.33,2.36-.98.64-.67.95-1.49.95-2.46s-.31-1.8-.94-2.43c-.63-.65-1.41-.97-2.36-.97-1.05,0-1.96.46-2.72,1.37h-.77l2.44-8.14h6.4v2.19Z"/>
  </g>
  <path class="cls-1" d="M251.03,264.28c-.63-1.16-1.49-.87-2.55-.54-1.01.32-3.01,1.01-3.65.82-.68-.21-2.19-1.29-2.69-1.96-.31-.43-2.91-4.19-3.45-5.33-.41-.86-3.01-4.76-3.42-5.83-.62-1.6-2.2-6.47-2.58-6.92-.22-.26-.52-1.79-.71-2.32-.72-1.97-1.09-2.53-1.7-4.25-.3-.84-.65-2.07.65-3.23.88-.78,2.93-3.13,3.27-3.45.69-.64,1.31-2.46,1.38-2.74.12-.49.67-1.95,1.58-4.78.22-.68-.04-3.14-.29-3.82-.47-1.26-.86-5.71-1.11-6.27-.16-.37-1.33-2.14-1.47-2.66-.1-.36-1.98-4.14-3.44-5.41-.91-.8-2.47-3.27-3.17-4.09-.61-.72-1.6-1.56-2.55-2-.07-.1-.13-.2-.21-.29-2.01-2.41-6.13-2.6-9.01-2.83-3.17-.24-5.5.33-8.54,1.23-1.27.38-3.22.49-4.37,1.22.01-.15,0-1.55.07-2.02.38-2.17,0-2.67-.35-3.86-.41-1.4-2.1-3.05-3.18-3.77-1.6-1.07-2.9-2.31-4.78-3.08-2.7-1.11-6.26-.82-9.46-1.66-3.06-.8-7,.69-8.83,3.79-.15.25-.23.5-.29.74-.14.08-.23.21-.3.4-.46,1.15-2.34,2.98-2.92,3.99-.34.58-2.32,2.82-2.54,3.23-.15.29-1.49,3.3-1.57,3.75-.13.83-1.04,2.76-1.3,3.64-.57,1.91-1.27,4.09-1.32,6.06,0,0-.59,2.82-.41,4.1.09.66.47,2.11.64,2.85.14.63,1.07,2.74,1.23,3.29.16.57,3.01,2.48,3.38,2.79.74.59,4.72,3.44,4.99,3.64.39.29.88.48,1.23.93.49.56-2.15,4.02-2.41,5.17-.13.59-.94,2.66-1.03,2.97-.38,1.32-1.52,2.86-1.75,4.17-.08.47-3.5,9.78-4.68,11.09-.3.33-1.71,1.97-2.03,2.18-.37.24-2.66,3.52-3.18,3.7-1.36.45-2.49.03-3.55.45-.67.27-2.62.4-3.13.77-.28.2-.78,1.47-.63,1.84.95,2.45,1.34,2.14,3.43,3.15.35.17,3.39.63,4.03.63,1.19,0,2.44.5,3.76.63.72.08,2.33.57,2.82.68.72.16,2.15,1.24,3.05.61.8-.88.96-.96.65-2.28-.15-.65-3.3-4-3.65-4.71-.27-.54.22-2.27.31-2.81.12-.66,1.9-4.87,2.47-5.74.78-1.18,1.01-3.03,1.78-4.12.27-.39,1.59-4.95,1.65-5.31.12-.77,1.9-5.17,2.04-6.07.04-.23.12-.43.21-.64.46-1.08,1.97-4.48,2.82-4.46.34,0,1.82-.64,2.16-.79.41-.17,1.65-1.22,3.64-1.7,2.16-.52,4.93-.54,6.98-1.65.68-.37,2.7-1.49,3-1.67.14-.08,1.42-2.26,1.71-2.67.2-.29,1.53-3,1.53-3-.12-.4,1.63-.18,1.72.3,0,0,1.47,4.2,1.78,4.83.51,1.03.73,2.67,1.97,4.26.19.25,1.89,2.5,2.34,2.94.41.4,1.55,1.38,1.96,1.74.24.2,3.59,3.09,4.89,3.33,2.97.54,6.02,1.85,9.06,1.62.85-.06,2.83-.82,3.41-.12.37.45,1.04,4.12,1.53,5.25.42.98,1.92,2.98,2.11,3.64.27.92,1.57,5.56,1.68,5.75,1.12,1.97,2.47,5.21,3.58,6.68.44.58,1.17,2.07,1.37,2.36.24.36,2.22,3.39,2.42,4.74.09.62-.66,2.41-.89,2.92-.2.44-1.05,1.11-1.44,1.85-.39.73-1.26,1.86-.95,2.76.83.94,1.49,1.22,2.14,1.66.97.65,3.31-1.69,4.58-2.14.37-.13.93-.4,1.25-.64.72-.55,1.72-1.18,2.34-1.34.6-.16,3.05-1.77,3.85-2.65.3-.33.55-.7.73-1.11l.4-.93c.21-.48.17-1.03-.08-1.49ZM205.27,203.3c1.6-1.14,3.43-1.79,5.38-1.98,2.09-.2,5.25-.83,7.33-.6.15.02,1.25.81,1.41.82-.25.18-.49.37-.74.55-.2.15-.4.3-.59.45-.99.41-3.85,1.98-4.38,2.07-1.23.21-4.25,1.39-5.48,1.46-.68.04-4.37.67-5.27.21-.71-.35.33-1.16.78-1.68.5-.46,1.01-.91,1.56-1.31ZM184.87,188.46c1.98-.05,4.3.43,6.23.92,1.85.47,3.44,1.17,5.04,2.22.75.49,3.53,2.76,4.16,3.39-1.58,1.13-4.4.14-6.07-.02-.15-.05-1.5-.24-1.6-.31-.36-.27-1.71-.39-2.14-.46-1.05-.17-2.73-.73-3.67-.99-2.24-.63-5.36-1.12-6.19-2.75-.14-.28.28-1.28,0-1.38.92-.37,3.34-.59,4.24-.61ZM197.49,202.51c-.44,1.1-.29,3.16-.68,4-.12.26-.16,6.04-.02,6.45-1.07,2.5-3.93,3.53-6.35,4.01-3.42.67-5.26,0-8.63-1.33-.54-.21-3.88-2.12-4.44-2.34-.61-.24-4.06-2.24-4.22-2.25-.67-.04-1.95-.33-2.63-.68-.35-1.66-.1-2.27.23-3.73.26-1.13.4-2.09.66-3.21.12-.51.67-1.86.8-2.36.23-.92,2.63-4.19,2.97-4.61.59-.72,2.19-2.22,2.84-2.68.52.39,1.08.72,1.63,1,2.04,1.03,4.1,2.02,6.25,2.8,3,1.09,6.12,1.57,9.26,1.55,1.47.43,2.77.82,3.01,1.17.6.89-.44,1.65-.67,2.22ZM225.34,222.77c-3.02,1.03-5.52.68-9.01.1-1.76-.29-2.91-1.36-5.78-1.16-.84.06-2.65.49-3.28.35-2.19-.48-1.96-1.45-2.89-2.64-1.26-1.51-1.22-1.91-1.6-2.66-.15-.31-.9-2.03-1.08-2.48-.37-.93.14-2.55.24-3.75,3.9-.24,7.98.63,11.73-.77,1.93-.72,3.54-1.86,5.18-3.09,1.36-1.02,2.73-2.04,4.09-3.06,1.79.21,1.69.91,2.52,1.67,1.2,1.11,3.04,2.76,3.92,3.87.51.64.59,1.78,1.07,2.63.33.6.84.99,1.12,1.56.19.38,1.99,5.29,1.66,5.52-.68.03-2.64.98-3.18,1.46-1.4,1.24-3.9,2.18-4.69,2.45Z"/>
</svg>